<?xml version="1.0" encoding="UTF-8" standalone="no"?>
<svg
   height="24px"
   viewBox="0 -960 960 960"
   width="24px"
   fill="#1f1f1f"
   version="1.1"
   id="svg1"
   sodipodi:docname="MatSymBackgroudNoDots.svg"
   inkscape:version="1.4.3 (0d15f75, 2025-12-25)"
   xmlns:inkscape="http://www.inkscape.org/namespaces/inkscape"
   xmlns:sodipodi="http://sodipodi.sourceforge.net/DTD/sodipodi-0.dtd"
   xmlns="http://www.w3.org/2000/svg"
   xmlns:svg="http://www.w3.org/2000/svg">
  <defs
     id="defs1" />
  <sodipodi:namedview
     id="namedview1"
     pagecolor="#ffffff"
     bordercolor="#000000"
     borderopacity="0.25"
     inkscape:showpageshadow="2"
     inkscape:pageopacity="0.0"
     inkscape:pagecheckerboard="0"
     inkscape:deskcolor="#d1d1d1"
     inkscape:zoom="36.875"
     inkscape:cx="12"
     inkscape:cy="12"
     inkscape:window-width="1920"
     inkscape:window-height="1129"
     inkscape:window-x="-8"
     inkscape:window-y="-8"
     inkscape:window-maximized="1"
     inkscape:current-layer="svg1" />
  <path
     d="m 200,-120 c -22,0 -40.83333,-7.83333 -56.5,-23.5 C 127.83333,-159.16667 120,-178 120,-200 v -560 c 0,-22 7.83333,-40.83333 23.5,-56.5 15.66667,-15.66667 34.5,-23.5 56.5,-23.5 h 560 c 22,0 40.83333,7.83333 56.5,23.5 15.66667,15.66667 23.5,34.5 23.5,56.5 v 560 c 0,22 -7.83333,40.83333 -23.5,56.5 -15.66667,15.66667 -34.5,23.5 -56.5,23.5 z m 0,-80 H 760 V -760 H 200 Z m 0,-560 v 560 z"
     id="path1"
     sodipodi:nodetypes="ssssssssssssscccccccc" />
</svg>
