<svg xmlns="http://www.w3.org/2000/svg" height="24px" viewBox="0 -960 960 960" width="24px" fill="#1f1f1f"><path d="M200-200v-560 203-3 360Zm0 80q-33 0-56.5-23.5T120-200v-560q0-33 23.5-56.5T200-840h480l160 160v147q-19-9-39-15t-41-9v-89L646-760H200v560h252q7 22 16.5 42t22.5 38H200Zm242-126q-1-9-1.5-17.5T440-281q0-54 20-104t58-89q-9-3-18.5-4.5T480-480q-50 0-85 35t-35 85q0 39 22.5 70.5T442-246Zm136.5 107.5Q520-197 520-280t58.5-141.5Q637-480 720-480t141.5 58.5Q920-363 920-280t-58.5 141.5Q803-80 720-80t-141.5-58.5ZM740-288v-112h-40v128l87 87 28-28-75-75ZM240-560h360v-160H240v160Z"/></svg>